<svg version="1.1" xmlns="http://www.w3.org/2000/svg" xmlns:xlink="http://www.w3.org/1999/xlink" x="0px" y="0px"
   viewBox="0 0 420.6 171.1" enable-background="new 0 0 420.6 171.1" xml:space="preserve">
<polygon fill="#d5bafb" id="XMLID_6_" points="402.9,29.6 356.7,29.6 356.7,41.6 373.8,41.6 373.8,141.8 385.8,141.8 385.8,41.6 402.9,41.6 "/>
<polygon fill="#d5bafb" id="XMLID_69_" points="338,129.9 338,31.6 338,29.9 338,29.6 326,29.6 326,29.9 326,31.6 326,141.9 361.7,141.9 
  361.7,129.9 "/>
<path fill="#d5bafb" id="XMLID_9_" d="M271.1,29.6v101.1v11.1v0.2h12v-0.2v-11.1v-39H302v39.6v10.6v0.2h12v-0.2v-10.6V29.6H271.1z M283.1,79.6v-38
  H302v38H283.1z"/>
<path fill="#d5bafb" id="XMLID_17_" d="M259.1,5.6h-11.9H19.8h-12v12v136.3v12h12h227.4h11.9h0.1V5.6H259.1z M19.8,153.9V17.6h227.4v136.3H19.8z"/>
<polygon fill="#d5bafb" id="XMLID_10_" points="211.4,129.7 211.4,30.7 211.4,29.7 211.4,29.5 199.4,29.5 199.4,29.7 199.4,30.7 199.4,141.7 
  235.2,141.7 235.2,129.7 "/>
<path fill="#d5bafb" id="XMLID_18_" d="M144.6,29.5L144.6,29.5v1v111.3h12V91.6H170l5.4,10.8v39.5h12V101h0c0-0.9-0.2-1.8-0.6-2.7l-6.6-13.1
  l6.9-20.3c0.2-0.6,0.3-1.3,0.3-1.9h0V41.6v-6v-5v-1v-0.1H144.6z M175.4,62l-6,17.7h-12.8v-38h18.9V62z"/>
<polygon fill="#d5bafb" id="XMLID_3_" points="133,29.6 115.8,29.6 103.8,29.6 86.7,29.6 86.7,41.6 103.8,41.6 103.8,141.7 115.8,141.7 115.8,41.6 
  133,41.6 "/>
<polygon fill="#d5bafb" id="XMLID_56_" points="74.7,141.8 31.8,141.8 31.8,29.5 74.7,29.5 74.7,70.4 62.7,70.4 62.7,41.5 43.8,41.5 43.8,129.8 
  62.7,129.8 62.7,100.9 74.7,100.9 "/>
</svg>
